Coordinates
version=1
nRows=9
nColumns=24
inDegrees=yes

Units are S.I. units (second, meters, Newtons, ...)
Angles are in degrees.

endheader
time	pelvis_tilt	pelvis_list	pelvis_rotation	pelvis_tx	pelvis_ty	pelvis_tz	hip_flexion_r	hip_adduction_r	hip_rotation_r	knee_angle_r	ankle_angle_r	subtalar_angle_r	mtp_angle_r	hip_flexion_l	hip_adduction_l	hip_rotation_l	knee_angle_l	ankle_angle_l	subtalar_angle_l	mtp_angle_l	lumbar_extension	lumbar_bending	lumbar_rotation
      3.70000000	     -0.87614089	      7.44239212	     -2.77465621	     -0.45278949	      0.93413739	      0.22165797	     23.75656699	     -5.98017042	      0.79385110	    -68.90561669	      9.74704797	    -17.34476247	      0.00000000	     14.70014743	     12.99684285	     -0.04605992	    -24.30293313	     20.26454189	     -8.91198927	      0.00000000	    -11.23229000	     -8.62847522	     -8.17168960
      3.70500000	     -0.77022030	      7.23847594	     -2.59001413	     -0.44568687	      0.93565818	      0.22116587	     24.24126670	     -5.71414478	      0.69400647	    -67.94286114	     10.05538515	    -16.95658848	      0.00000000	     13.72129891	     12.93351086	      0.50910773	    -23.67859627	     20.23456593	     -9.18931675	      0.00000000	    -11.37624466	     -8.31092216	     -8.41358481
      3.71000000	     -0.67596925	      7.03656279	     -2.38547925	     -0.43860073	      0.93709244	      0.22065486	     24.70197579	     -5.45672642	      0.58085880	    -66.88733946	     10.31218627	    -16.65411841	      0.00000000	     12.75754250	     12.87081991	      1.10188070	    -23.05441716	     20.17181967	     -9.51861849	      0.00000000	    -11.50970234	     -7.99367526	     -8.66857901
      3.71500000	     -0.60223665	      6.83436784	     -2.15950701	     -0.43152214	      0.93842086	      0.22012234	     25.14361772	     -5.20839376	      0.44845440	    -65.73523518	     10.54326957	    -16.43936638	      0.00000000	     11.82294639	     12.80339894	      1.71040065	    -22.43880882	     20.08348908	     -9.89459717	      0.00000000	    -11.62114643	     -7.67236422	     -8.92270199
      3.72000000	     -0.53517753	      6.64112423	     -1.91901369	     -0.42446439	      0.93965679	      0.21958316	     25.56187827	     -4.97495476	      0.31714952	    -64.50244058	     10.72030517	    -16.29071280	      0.00000000	     10.89680915	     12.74218831	      2.36094309	    -21.81935501	     19.97145744	    -10.32372074	      0.00000000	    -11.72686337	     -7.36370073	     -9.20660875
      3.72500000	     -0.48101899	      6.45271172	     -1.66693874	     -0.41743916	      0.94080242	      0.21904175	     25.96156341	     -4.74958379	      0.19469551	    -63.18765846	     10.85049038	    -16.19079500	      0.00000000	      9.98997624	     12.67945818	      3.04121241	    -21.20152324	     19.82575102	    -10.79258995	      0.00000000	    -11.82232526	     -7.05995230	     -9.50735116
      3.73000000	     -0.44446702	      6.26775782	     -1.40351135	     -0.41042080	      0.94183217	      0.21848431	     26.34280705	     -4.53773897	      0.06770976	    -61.78560326	     10.96726798	    -16.14731299	      0.00000000	      9.11007967	     12.61335948	      3.72333945	    -20.59041973	     19.66431582	    -11.30630634	      0.00000000	    -11.89710415	     -6.75576464	     -9.80246210
      3.73500000	     -0.41663303	      6.09101246	     -1.12656148	     -0.40341378	      0.94276277	      0.21793438	     26.69733669	     -4.34225889	     -0.05702910	    -60.30209133	     11.05987597	    -16.14636429	      0.00000000	      8.24436607	     12.54888151	      4.42552061	    -19.98162614	     19.48019772	    -11.87151247	      0.00000000	    -11.96174574	     -6.46729642	    -10.11500200
      3.74000000	     -0.40274795	      5.91927041	     -0.84350713	     -0.39642787	      0.94358842	      0.21738631	     27.03177601	     -4.15861277	     -0.17178651	    -58.73710915	     11.13007250	    -16.17203943	      0.00000000	      7.40191920	     12.48111536	      5.13274833	    -19.37876830	     19.27674633	    -12.47390892	      0.00000000	    -12.01113381	     -6.18442013	    -10.42825551
